<svg xmlns="http://www.w3.org/2000/svg" width="1024" height="1024" viewBox="0 0 1024 1024">
  <defs>
    <linearGradient id="tile" x1="0" y1="0" x2="0" y2="1">
      <stop offset="0" stop-color="#0F0F0F"/><stop offset="0.5" stop-color="#050505"/><stop offset="1" stop-color="#000000"/>
    </linearGradient>
    <radialGradient id="vignette" cx="0.5" cy="0.42" r="0.78">
      <stop offset="0" stop-color="#000000" stop-opacity="0"/><stop offset="1" stop-color="#000000" stop-opacity="0.55"/>
    </radialGradient>
    <radialGradient id="led-green" cx="0.5" cy="0.5" r="0.5"><stop offset="0" stop-color="#FFFFFF" stop-opacity="0.85"/><stop offset="0.20" stop-color="#22E869"/><stop offset="0.62" stop-color="#06C24A"/><stop offset="1" stop-color="#058033"/></radialGradient>
    <filter id="bloom" x="-40%" y="-40%" width="180%" height="180%"><feGaussianBlur stdDeviation="12"/></filter>
    <filter id="paneGlow" x="-50%" y="-50%" width="200%" height="200%"><feGaussianBlur stdDeviation="30"/></filter>
    <clipPath id="tileClip"><rect width="1024" height="1024" rx="200"/></clipPath>
  </defs>

  <rect width="1024" height="1024" rx="200" fill="url(#tile)"/>

  <g clip-path="url(#tileClip)">
    <g filter="url(#paneGlow)">
      <rect x="96" y="96" width="370" height="370" rx="26" fill="rgb(34,232,105)" opacity="0.14"/>
      <rect x="558" y="558" width="370" height="370" rx="26" fill="rgb(34,232,105)" opacity="0.14"/>
    </g>
    <rect width="1024" height="1024" fill="url(#vignette)"/>

    <g fill="#FFFFFF" opacity="0.075">
    <circle cx="122" cy="122" r="12.2"/>
    <circle cx="226" cy="122" r="12.2"/>
    <circle cx="278" cy="122" r="12.2"/>
    <circle cx="330" cy="122" r="12.2"/>
    <circle cx="434" cy="122" r="12.2"/>
    <circle cx="590" cy="122" r="12.2"/>
    <circle cx="642" cy="122" r="12.2"/>
    <circle cx="694" cy="122" r="12.2"/>
    <circle cx="746" cy="122" r="12.2"/>
    <circle cx="798" cy="122" r="12.2"/>
    <circle cx="850" cy="122" r="12.2"/>
    <circle cx="902" cy="122" r="12.2"/>
    <circle cx="122" cy="174" r="12.2"/>
    <circle cx="226" cy="174" r="12.2"/>
    <circle cx="278" cy="174" r="12.2"/>
    <circle cx="330" cy="174" r="12.2"/>
    <circle cx="434" cy="174" r="12.2"/>
    <circle cx="590" cy="174" r="12.2"/>
    <circle cx="642" cy="174" r="12.2"/>
    <circle cx="694" cy="174" r="12.2"/>
    <circle cx="746" cy="174" r="12.2"/>
    <circle cx="798" cy="174" r="12.2"/>
    <circle cx="850" cy="174" r="12.2"/>
    <circle cx="902" cy="174" r="12.2"/>
    <circle cx="122" cy="226" r="12.2"/>
    <circle cx="226" cy="226" r="12.2"/>
    <circle cx="278" cy="226" r="12.2"/>
    <circle cx="330" cy="226" r="12.2"/>
    <circle cx="434" cy="226" r="12.2"/>
    <circle cx="590" cy="226" r="12.2"/>
    <circle cx="642" cy="226" r="12.2"/>
    <circle cx="694" cy="226" r="12.2"/>
    <circle cx="746" cy="226" r="12.2"/>
    <circle cx="798" cy="226" r="12.2"/>
    <circle cx="850" cy="226" r="12.2"/>
    <circle cx="902" cy="226" r="12.2"/>
    <circle cx="122" cy="278" r="12.2"/>
    <circle cx="226" cy="278" r="12.2"/>
    <circle cx="330" cy="278" r="12.2"/>
    <circle cx="434" cy="278" r="12.2"/>
    <circle cx="590" cy="278" r="12.2"/>
    <circle cx="642" cy="278" r="12.2"/>
    <circle cx="694" cy="278" r="12.2"/>
    <circle cx="746" cy="278" r="12.2"/>
    <circle cx="798" cy="278" r="12.2"/>
    <circle cx="850" cy="278" r="12.2"/>
    <circle cx="902" cy="278" r="12.2"/>
    <circle cx="122" cy="330" r="12.2"/>
    <circle cx="226" cy="330" r="12.2"/>
    <circle cx="330" cy="330" r="12.2"/>
    <circle cx="434" cy="330" r="12.2"/>
    <circle cx="590" cy="330" r="12.2"/>
    <circle cx="642" cy="330" r="12.2"/>
    <circle cx="694" cy="330" r="12.2"/>
    <circle cx="746" cy="330" r="12.2"/>
    <circle cx="798" cy="330" r="12.2"/>
    <circle cx="850" cy="330" r="12.2"/>
    <circle cx="902" cy="330" r="12.2"/>
    <circle cx="122" cy="382" r="12.2"/>
    <circle cx="278" cy="382" r="12.2"/>
    <circle cx="434" cy="382" r="12.2"/>
    <circle cx="590" cy="382" r="12.2"/>
    <circle cx="642" cy="382" r="12.2"/>
    <circle cx="694" cy="382" r="12.2"/>
    <circle cx="746" cy="382" r="12.2"/>
    <circle cx="798" cy="382" r="12.2"/>
    <circle cx="850" cy="382" r="12.2"/>
    <circle cx="902" cy="382" r="12.2"/>
    <circle cx="122" cy="434" r="12.2"/>
    <circle cx="226" cy="434" r="12.2"/>
    <circle cx="278" cy="434" r="12.2"/>
    <circle cx="330" cy="434" r="12.2"/>
    <circle cx="434" cy="434" r="12.2"/>
    <circle cx="590" cy="434" r="12.2"/>
    <circle cx="642" cy="434" r="12.2"/>
    <circle cx="694" cy="434" r="12.2"/>
    <circle cx="746" cy="434" r="12.2"/>
    <circle cx="798" cy="434" r="12.2"/>
    <circle cx="850" cy="434" r="12.2"/>
    <circle cx="902" cy="434" r="12.2"/>
    <circle cx="122" cy="590" r="12.2"/>
    <circle cx="174" cy="590" r="12.2"/>
    <circle cx="226" cy="590" r="12.2"/>
    <circle cx="278" cy="590" r="12.2"/>
    <circle cx="330" cy="590" r="12.2"/>
    <circle cx="382" cy="590" r="12.2"/>
    <circle cx="434" cy="590" r="12.2"/>
    <circle cx="590" cy="590" r="12.2"/>
    <circle cx="850" cy="590" r="12.2"/>
    <circle cx="902" cy="590" r="12.2"/>
    <circle cx="122" cy="642" r="12.2"/>
    <circle cx="174" cy="642" r="12.2"/>
    <circle cx="226" cy="642" r="12.2"/>
    <circle cx="278" cy="642" r="12.2"/>
    <circle cx="330" cy="642" r="12.2"/>
    <circle cx="382" cy="642" r="12.2"/>
    <circle cx="434" cy="642" r="12.2"/>
    <circle cx="590" cy="642" r="12.2"/>
    <circle cx="694" cy="642" r="12.2"/>
    <circle cx="746" cy="642" r="12.2"/>
    <circle cx="798" cy="642" r="12.2"/>
    <circle cx="902" cy="642" r="12.2"/>
    <circle cx="122" cy="694" r="12.2"/>
    <circle cx="174" cy="694" r="12.2"/>
    <circle cx="226" cy="694" r="12.2"/>
    <circle cx="278" cy="694" r="12.2"/>
    <circle cx="330" cy="694" r="12.2"/>
    <circle cx="382" cy="694" r="12.2"/>
    <circle cx="434" cy="694" r="12.2"/>
    <circle cx="590" cy="694" r="12.2"/>
    <circle cx="694" cy="694" r="12.2"/>
    <circle cx="746" cy="694" r="12.2"/>
    <circle cx="798" cy="694" r="12.2"/>
    <circle cx="902" cy="694" r="12.2"/>
    <circle cx="122" cy="746" r="12.2"/>
    <circle cx="174" cy="746" r="12.2"/>
    <circle cx="226" cy="746" r="12.2"/>
    <circle cx="278" cy="746" r="12.2"/>
    <circle cx="330" cy="746" r="12.2"/>
    <circle cx="382" cy="746" r="12.2"/>
    <circle cx="434" cy="746" r="12.2"/>
    <circle cx="590" cy="746" r="12.2"/>
    <circle cx="850" cy="746" r="12.2"/>
    <circle cx="902" cy="746" r="12.2"/>
    <circle cx="122" cy="798" r="12.2"/>
    <circle cx="174" cy="798" r="12.2"/>
    <circle cx="226" cy="798" r="12.2"/>
    <circle cx="278" cy="798" r="12.2"/>
    <circle cx="330" cy="798" r="12.2"/>
    <circle cx="382" cy="798" r="12.2"/>
    <circle cx="434" cy="798" r="12.2"/>
    <circle cx="590" cy="798" r="12.2"/>
    <circle cx="694" cy="798" r="12.2"/>
    <circle cx="746" cy="798" r="12.2"/>
    <circle cx="798" cy="798" r="12.2"/>
    <circle cx="902" cy="798" r="12.2"/>
    <circle cx="122" cy="850" r="12.2"/>
    <circle cx="174" cy="850" r="12.2"/>
    <circle cx="226" cy="850" r="12.2"/>
    <circle cx="278" cy="850" r="12.2"/>
    <circle cx="330" cy="850" r="12.2"/>
    <circle cx="382" cy="850" r="12.2"/>
    <circle cx="434" cy="850" r="12.2"/>
    <circle cx="590" cy="850" r="12.2"/>
    <circle cx="694" cy="850" r="12.2"/>
    <circle cx="746" cy="850" r="12.2"/>
    <circle cx="798" cy="850" r="12.2"/>
    <circle cx="902" cy="850" r="12.2"/>
    <circle cx="122" cy="902" r="12.2"/>
    <circle cx="174" cy="902" r="12.2"/>
    <circle cx="226" cy="902" r="12.2"/>
    <circle cx="278" cy="902" r="12.2"/>
    <circle cx="330" cy="902" r="12.2"/>
    <circle cx="382" cy="902" r="12.2"/>
    <circle cx="434" cy="902" r="12.2"/>
    <circle cx="590" cy="902" r="12.2"/>
    <circle cx="850" cy="902" r="12.2"/>
    <circle cx="902" cy="902" r="12.2"/>
    </g>

    <g fill="#5BFF93" opacity="0.55" filter="url(#bloom)">
    <circle cx="174" cy="122" r="17.0"/>
    <circle cx="174" cy="174" r="17.0"/>
    <circle cx="174" cy="226" r="17.0"/>
    <circle cx="174" cy="278" r="17.0"/>
    <circle cx="174" cy="330" r="17.0"/>
    <circle cx="174" cy="382" r="17.0"/>
    <circle cx="174" cy="434" r="17.0"/>
    <circle cx="226" cy="382" r="17.0"/>
    <circle cx="278" cy="278" r="17.0"/>
    <circle cx="278" cy="330" r="17.0"/>
    <circle cx="330" cy="382" r="17.0"/>
    <circle cx="382" cy="122" r="17.0"/>
    <circle cx="382" cy="174" r="17.0"/>
    <circle cx="382" cy="226" r="17.0"/>
    <circle cx="382" cy="278" r="17.0"/>
    <circle cx="382" cy="330" r="17.0"/>
    <circle cx="382" cy="382" r="17.0"/>
    <circle cx="382" cy="434" r="17.0"/>
    </g>
    <g fill="#5BFF93" opacity="0.55" filter="url(#bloom)">
    <circle cx="642" cy="590" r="17.0"/>
    <circle cx="642" cy="642" r="17.0"/>
    <circle cx="642" cy="694" r="17.0"/>
    <circle cx="642" cy="746" r="17.0"/>
    <circle cx="642" cy="798" r="17.0"/>
    <circle cx="642" cy="850" r="17.0"/>
    <circle cx="642" cy="902" r="17.0"/>
    <circle cx="694" cy="590" r="17.0"/>
    <circle cx="694" cy="746" r="17.0"/>
    <circle cx="694" cy="902" r="17.0"/>
    <circle cx="746" cy="590" r="17.0"/>
    <circle cx="746" cy="746" r="17.0"/>
    <circle cx="746" cy="902" r="17.0"/>
    <circle cx="798" cy="590" r="17.0"/>
    <circle cx="798" cy="746" r="17.0"/>
    <circle cx="798" cy="902" r="17.0"/>
    <circle cx="850" cy="642" r="17.0"/>
    <circle cx="850" cy="694" r="17.0"/>
    <circle cx="850" cy="798" r="17.0"/>
    <circle cx="850" cy="850" r="17.0"/>
    </g>

    <g>
    <circle cx="174" cy="122" r="17.0" fill="url(#led-green)"/>
    <circle cx="174" cy="174" r="17.0" fill="url(#led-green)"/>
    <circle cx="174" cy="226" r="17.0" fill="url(#led-green)"/>
    <circle cx="174" cy="278" r="17.0" fill="url(#led-green)"/>
    <circle cx="174" cy="330" r="17.0" fill="url(#led-green)"/>
    <circle cx="174" cy="382" r="17.0" fill="url(#led-green)"/>
    <circle cx="174" cy="434" r="17.0" fill="url(#led-green)"/>
    <circle cx="226" cy="382" r="17.0" fill="url(#led-green)"/>
    <circle cx="278" cy="278" r="17.0" fill="url(#led-green)"/>
    <circle cx="278" cy="330" r="17.0" fill="url(#led-green)"/>
    <circle cx="330" cy="382" r="17.0" fill="url(#led-green)"/>
    <circle cx="382" cy="122" r="17.0" fill="url(#led-green)"/>
    <circle cx="382" cy="174" r="17.0" fill="url(#led-green)"/>
    <circle cx="382" cy="226" r="17.0" fill="url(#led-green)"/>
    <circle cx="382" cy="278" r="17.0" fill="url(#led-green)"/>
    <circle cx="382" cy="330" r="17.0" fill="url(#led-green)"/>
    <circle cx="382" cy="382" r="17.0" fill="url(#led-green)"/>
    <circle cx="382" cy="434" r="17.0" fill="url(#led-green)"/>
    </g>
    <g>
    <circle cx="642" cy="590" r="17.0" fill="url(#led-green)"/>
    <circle cx="642" cy="642" r="17.0" fill="url(#led-green)"/>
    <circle cx="642" cy="694" r="17.0" fill="url(#led-green)"/>
    <circle cx="642" cy="746" r="17.0" fill="url(#led-green)"/>
    <circle cx="642" cy="798" r="17.0" fill="url(#led-green)"/>
    <circle cx="642" cy="850" r="17.0" fill="url(#led-green)"/>
    <circle cx="642" cy="902" r="17.0" fill="url(#led-green)"/>
    <circle cx="694" cy="590" r="17.0" fill="url(#led-green)"/>
    <circle cx="694" cy="746" r="17.0" fill="url(#led-green)"/>
    <circle cx="694" cy="902" r="17.0" fill="url(#led-green)"/>
    <circle cx="746" cy="590" r="17.0" fill="url(#led-green)"/>
    <circle cx="746" cy="746" r="17.0" fill="url(#led-green)"/>
    <circle cx="746" cy="902" r="17.0" fill="url(#led-green)"/>
    <circle cx="798" cy="590" r="17.0" fill="url(#led-green)"/>
    <circle cx="798" cy="746" r="17.0" fill="url(#led-green)"/>
    <circle cx="798" cy="902" r="17.0" fill="url(#led-green)"/>
    <circle cx="850" cy="642" r="17.0" fill="url(#led-green)"/>
    <circle cx="850" cy="694" r="17.0" fill="url(#led-green)"/>
    <circle cx="850" cy="798" r="17.0" fill="url(#led-green)"/>
    <circle cx="850" cy="850" r="17.0" fill="url(#led-green)"/>
    </g>
  </g>

  <rect x="1.5" y="1.5" width="1021" height="1021" rx="198.5"
        fill="none" stroke="#FFFFFF" stroke-opacity="0.10" stroke-width="3"/>
  <path d="M 200 2.5 H 824" fill="none" stroke="#FFFFFF" stroke-opacity="0.14" stroke-width="2"/>
</svg>
